# xmcd
#
# Track frame offsets:
#	150
#	25161
#	52826
#	75559
#	95488
#	103974
#	130906
#	163744
#	187312
#	216209
#
# Disc length: 3178 seconds
#
# Revision: 1
# Processed by: cddbd v1.5.2PL0 Copyright (c) Steve Scherf et al.
# Submitted via: EasyCDDAExtractor 16.0.9.1
#
DISCID=880c680a
DTITLE=Dulyasith Srabua and Bert Deivert - 13 Samsen
DYEAR=2017
DGENRE=Blues
TTITLE0=Cypress Grove Blues
TTITLE1=44 Blues
TTITLE2=Come Back Baby
TTITLE3=Black Nanny
TTITLE4=เดิน... Walk
TTITLE5=หาบครุน้ำ Hap-Kru-Nam
TTITLE6=อัมพวา Umpawa
TTITLE7=เหงา Ngow
TTITLE8=ดอกไม้ให้คุณ Dok-Mai-Hai-Khun
TTITLE9=13 Samsen
EXTD=
EXTT0=
EXTT1=
EXTT2=
EXTT3=
EXTT4=
EXTT5=
EXTT6=
EXTT7=
EXTT8=
EXTT9=
PLAYORDER=
